<svg id="Capa_1" enable-background="new 0 0 512 512" height="512" viewBox="0 0 512 512" width="512" xmlns="http://www.w3.org/2000/svg"><g><path d="m512 116.553h-512v-73.252c0-5.523 4.477-10 10-10h492c5.523 0 10 4.477 10 10z" fill="#fb636f"/><g fill="#fa4954"><path d="m270.569 33.301v33.301c0 11.495 9.318 20.813 20.813 20.813h41.626c11.495 0 20.813-9.318 20.813-20.813v-33.301z"/><path d="m242.472 33.301v33.301c0 11.495-9.318 20.813-20.813 20.813h-41.626c-11.495 0-20.813-9.318-20.813-20.813v-33.301z"/><path d="m385.041 33.301v33.301c0 11.495 9.318 20.813 20.813 20.813h41.626c11.495 0 20.813-9.318 20.813-20.813v-33.301z"/><path d="m126.959 33.301v33.301c0 11.495-9.318 20.813-20.813 20.813h-41.626c-11.495 0-20.813-9.318-20.813-20.813v-33.301z"/><path d="m491.187 33.301v83.252h20.813v-73.252c0-5.523-4.477-10-10-10z"/></g><path d="m502 512h-492c-5.523 0-10-4.477-10-10v-385.447h512v385.447c0 5.523-4.477 10-10 10z" fill="#eff3f5"/><path d="m0 116.553v20.813h480.78c5.747 0 10.406 4.659 10.406 10.406v364.228h10.814c5.523 0 10-4.477 10-10v-385.447z" fill="#c9e2e7"/><path d="m437.48 66.602h-21.626c-5.523 0-10-4.477-10-10v-46.602c0-5.523 4.477-10 10-10h21.626c5.523 0 10 4.477 10 10v46.602c0 5.522-4.477 10-10 10z" fill="#cbcbcb"/><path d="m96.146 66.602h-21.626c-5.523 0-10-4.477-10-10v-46.602c0-5.523 4.477-10 10-10h21.626c5.523 0 10 4.477 10 10v46.602c0 5.522-4.477 10-10 10z" fill="#cbcbcb"/><path d="m323.008 66.602h-21.626c-5.523 0-10-4.477-10-10v-46.602c0-5.523 4.477-10 10-10h21.626c5.523 0 10 4.477 10 10v46.602c0 5.522-4.477 10-10 10z" fill="#cbcbcb"/><path d="m190.033 66.602h21.626c5.523 0 10-4.477 10-10v-46.602c0-5.523-4.477-10-10-10h-21.626c-5.523 0-10 4.477-10 10v46.602c0 5.522 4.477 10 10 10z" fill="#cbcbcb"/><circle cx="256" cy="314.276" fill="#62d8f9" r="156.098"/><path d="m343.593 185.058c16.963 24.976 26.879 55.126 26.879 87.593 0 86.21-69.887 156.098-156.098 156.098-32.467 0-62.617-9.915-87.593-26.879 28.079 41.343 75.476 68.505 129.219 68.505 86.21 0 156.098-69.887 156.098-156.098 0-53.744-27.163-101.14-68.505-129.219z" fill="#00bef7"/><circle cx="256" cy="314.276" fill="#c9e2e7" r="124.878"/><g><path d="m126.959 165.905h-62.439c-4.267 0-7.726-3.459-7.726-7.726s3.459-7.726 7.726-7.726h62.439c4.267 0 7.726 3.459 7.726 7.726s-3.459 7.726-7.726 7.726z" fill="#fce25c"/></g><g><path d="m106.146 192.962h-41.626c-4.267 0-7.726-3.459-7.726-7.726s3.459-7.726 7.726-7.726h41.626c4.267 0 7.726 3.459 7.726 7.726s-3.459 7.726-7.726 7.726z" fill="#fce25c"/></g><g><path d="m256 304.312c-4.267 0-7.726-3.459-7.726-7.726v-80.13c0-4.267 3.459-7.726 7.726-7.726 4.268 0 7.726 3.459 7.726 7.726v80.13c0 4.267-3.458 7.726-7.726 7.726z" fill="#595959"/></g><g><path d="m322.602 322.003h-48.91c-4.268 0-7.726-3.459-7.726-7.726s3.459-7.726 7.726-7.726h48.91c4.268 0 7.726 3.459 7.726 7.726s-3.459 7.726-7.726 7.726z" fill="#595959"/></g><path d="m256 288.859c-14.015 0-25.418 11.402-25.418 25.418 0 14.015 11.402 25.417 25.418 25.417 14.015 0 25.418-11.402 25.418-25.417s-11.403-25.418-25.418-25.418z" fill="#fce25c"/></g></svg>